<svg width="16" height="16" fill="none" xmlns="http://www.w3.org/2000/svg"><path d="M13.7 6.7c0-2.2-2-4.3-4.3-4.6h-.5c-.5 0-.6.3-.7.5l.1.5c.2.2.5.2.7.3h.2c2.1.5 2.8 1.2 3.2 3.4v.1c0 .3 0 .8.6.8h.2c.5 0 .5-.6.5-.8v-.2z" fill="#000"/><path d="M8.7 1.3H9c3.5.5 5.2 2.2 5.6 5.7v.2c0 .3 0 .9.6 1 .3 0 .4-.1.5-.3.2-.2.2-.5.2-.7V7A7.2 7.2 0 009 0H8.7C8 0 8 .4 8 .7c0 .5.5.6.7.6zM14.3 11.6l-.2-.2-1.2-.8-.2-.2c-.5-.4-1-.5-1.4-.5-.6 0-1.1.3-1.5 1-.2.2-.4.3-.7.3l-.5-.1A6.6 6.6 0 015 7.7c-.3-.7-.2-1.2.3-1.6.4-.2 1-.6 1-1.4a8 8 0 00-3-3.8h-1c-1 .3-1.6.9-2 1.6a3 3 0 000 2.4A19.5 19.5 0 0012 16h.2v.1c1.2 0 2.7-1 3.1-2.3.4-1.1-.3-1.7-.9-2zM9.3 4.2c-.2 0-.7 0-.8.4v.5l.6.3c.8.2 1.2.6 1.3 1.4 0 .4.3.7.6.7h.1c.4 0 .6-.4.6-.9 0-.6-.3-1.2-.8-1.7s-1-.8-1.6-.7z" fill="#000"/></svg>