<svg width="18" height="14" fill="none" xmlns="http://www.w3.org/2000/svg"><path d="M17.4 8.5l.2-1.4C17.6 3.4 13.8.5 9 .5H7.6A6 6 0 005 0C2.3 0 .1 1.7.1 3.8c0 .7.3 1.4.7 2L.6 7c0 3.6 3.8 6.6 8.5 6.6.5 0 1 0 1.5-.2a6 6 0 002.4.5c2.7 0 4.9-1.7 4.9-3.8 0-.6-.2-1.2-.5-1.7zm-4 1.7c-.4.5-1 .8-1.7 1-.7.3-1.6.4-2.6.4a8 8 0 01-3-.5c-.6-.2-1.1-.6-1.5-1-.3-.4-.5-.8-.5-1.1 0-.3.1-.5.4-.7l.8-.2c.3 0 .6 0 .8.2l.5.5.5.7c.1.2.4.3.7.4l1.2.2c.7 0 1.3-.1 1.7-.3.4-.3.6-.5.6-.9 0-.2 0-.4-.3-.6-.2-.2-.5-.3-.9-.4l-1.5-.3a15.2 15.2 0 01-2.3-.5c-.6-.2-1-.5-1.4-.8-.4-.4-.6-.8-.6-1.3s.2-1 .6-1.4c.4-.4 1-.6 1.7-.9A9 9 0 019 2.4l2 .2 1.4.6c.4.2.7.5.8.7.2.3.3.5.3.8l-.3.6c-.3.2-.6.3-1 .3-.2 0-.5 0-.6-.2l-.6-.5-.7-.8A3 3 0 008.9 4c-.6 0-1.1 0-1.5.3-.3.2-.5.4-.5.6 0 .2 0 .3.2.4l.5.3.6.2a39.2 39.2 0 003 .6l1.5.5c.4.2.8.5 1 .8.2.3.3.7.3 1.2s-.2 1-.6 1.4z" fill="#000"/></svg>